<?xml version="1.0" encoding="UTF-8" standalone="no"?>
<!-- Creator: CorelDRAW X5 -->

<svg
   xml:space="preserve"
   width="15mm"
   height="15mm"
   style="shape-rendering:geometricPrecision; text-rendering:geometricPrecision; image-rendering:optimizeQuality; fill-rule:evenodd; clip-rule:evenodd"
   viewBox="0 0 15754 13000"
   version="1.1"
   id="svg10"
   sodipodi:docname="logo.svg"
   xmlns:inkscape="http://www.inkscape.org/namespaces/inkscape"
   xmlns:sodipodi="http://sodipodi.sourceforge.net/DTD/sodipodi-0.dtd"
   xmlns="http://www.w3.org/2000/svg"
   xmlns:svg="http://www.w3.org/2000/svg"><sodipodi:namedview
   id="namedview10"
   pagecolor="#ffffff"
   bordercolor="#000000"
   borderopacity="0.25"
   inkscape:showpageshadow="2"
   inkscape:pageopacity="0.0"
   inkscape:pagecheckerboard="0"
   inkscape:deskcolor="#d1d1d1"
   inkscape:document-units="mm" />
 <defs
   id="defs1">
  <style
   type="text/css"
   id="style1">
   <![CDATA[
    .fil0 {fill:#008CB5;fill-rule:nonzero}
   ]]>
  </style>
 </defs>
 <g
   id="Layer_x0020_1"
   inkscape:label="Layer 1">
  <metadata
   id="CorelCorpID_0Corel-Layer" />
 </g>
 <g
   id="__x0023_Layer_x0020_1"
   inkscape:label="__x0023_Layer 1">
  <metadata
   id="CorelCorpID_1Corel-Layer" />
  <path
   class="fil0"
   d="M8824 7991c-216,305 -329,684 81,964l3 0c-52,-682 2235,-866 1920,-1949l-11 -28c-188,-410 -650,-492 -912,-262 -225,197 -207,557 -104,808 -268,-45 -805,223 -977,467z"
   id="path1" />
  <path
   class="fil0"
   d="M12341 4157c-1,-1 -1,-1 -2,-2l-4308 -4094c-40,-39 -93,-61 -149,-61 -56,0 -109,22 -149,61l-4316 4093c-1,1 -2,1 -2,2 -40,40 -62,94 -62,150 0,57 22,110 62,150 23,23 54,35 86,35l519 0 42 942c3,2084 1676,3777 3752,3813 -551,-226 -1812,-807 -2578,-1663 -334,-373 -575,-798 -621,-1269 -57,-571 179,-1103 585,-1448 749,-638 1902,-502 2475,326l3 28c-191,73 -374,180 -538,320 -450,384 -712,974 -649,1607 52,523 319,995 689,1409 226,252 491,483 769,690 205,-3 407,-23 603,-58 -370,-249 -1057,-765 -1432,-1385 -176,-292 -283,-607 -255,-928 35,-389 260,-715 575,-895 582,-332 1337,-95 1615,532 525,-776 1709,-628 2028,251 4,4 88,224 64,492 -7,76 -21,151 -42,224 338,-530 550,-1149 590,-1814 0,0 0,-1 0,-1 0,-2 0,-5 0,-7 4,-65 6,-130 7,-195 6,-280 5,-682 3,-970l551 0c32,0 63,-13 86,-35 83,-83 83,-218 0,-301zm-5203 200l0 0c-406,100 -817,-148 -917,-554 -100,-406 148,-817 554,-917 406,-100 817,148 917,554 100,406 -148,817 -554,917zm2117 1658l0 0c-417,32 -781,-281 -812,-698 -32,-417 281,-781 698,-812 417,-32 781,281 813,698 32,417 -281,781 -698,812z"
   id="path2" />
  
  
  
  
  
  
  
  
 </g>
</svg>
